# xmcd
#
# Track frame offsets: 
#        182
#        12382
#        23685
#        35750
#        45420
#        56057
#        69532
#        80480
#        94982
#        108222
#        119735
#        130382
#        142950
#        156267
#        169050
#        182227
#        193060
#        205462
#        219190
#        230187
#        241755
#        253155
#        262695
#        273240
#        285360
#
# Disc length: 3955 seconds
#
# Revision: 3
# Processed by: cddbd v1.5.2PL0 Copyright (c) Steve Scherf et al.
# Submitted via: ExactAudioCopy v1.0b1
#
DISCID=6d0f7119
DTITLE=The Clovers - The Clovers Dance Party (1959)
DYEAR=1997
DGENRE=R&B
TTITLE0=Love Bug (mono)
TTITLE1=All About You (mono)
TTITLE2=If I Could Be Loved By You (mono)
TTITLE3=So Young (mono)
TTITLE4=Down In The Alley (alt) (mono)
TTITLE5=Nip Sip (mono)
TTITLE6=I, I, I Love You (mono)
TTITLE7=In The Morning Time (mono)
TTITLE8=Your Tender Lips (mono)
TTITLE9=Fool, Fool, Fool (mono)
TTITLE10=Wishing For Your Love (mono)
TTITLE11=There's No Tomorrow (mono)
TTITLE12=Your Cash Ain't Nothing But Trash (mono)
TTITLE13=All Righty, Oh Sweetie (mono)
TTITLE14=If You Love Me (Why Don't You Tell Me So) (mono)
TTITLE15=Hey Doll Baby (mono)
TTITLE16=Baby, Baby, Oh My Darling (mono)
TTITLE17=Bring Me Love (mono)
TTITLE18=I'm A Lonely Fool (mono)
TTITLE19=From The Bottom Of My Heart (mono)
TTITLE20=You Good Looking Woman (mono)
TTITLE21=Here Comes Romance (mono)
TTITLE22=The Bootie Green (mono)
TTITLE23=Drive It Home (mono)
TTITLE24=All Night Boogie (mono)
EXTD=
EXTT0=
EXTT1=
EXTT2=
EXTT3=
EXTT4=
EXTT5=
EXTT6=
EXTT7=
EXTT8=
EXTT9=
EXTT10=
EXTT11=
EXTT12=
EXTT13=
EXTT14=
EXTT15=
EXTT16=
EXTT17=
EXTT18=
EXTT19=
EXTT20=
EXTT21=
EXTT22=
EXTT23=
EXTT24=
PLAYORDER=
